<mxfile host="Electron" modified="2024-07-13T03:25:25.861Z" agent="Mozilla/5.0 (Macintosh; Intel Mac OS X 10_15_7) AppleWebKit/537.36 (KHTML, like Gecko) draw.io/24.5.1 Chrome/124.0.6367.207 Electron/30.0.6 Safari/537.36" etag="jrkmTAVOaEJMWPEi-X4a" version="24.5.1" type="device" pages="3">
  <diagram id="83PpXdflrvBBaNJUL6ji" name="high-level-architecture">
    <mxGraphModel dx="1114" dy="824" grid="1" gridSize="10" guides="1" tooltips="1" connect="1" arrows="1" fold="1" page="1" pageScale="1" pageWidth="850" pageHeight="1100" math="0" shadow="0">
      <root>
        <mxCell id="0" />
        <mxCell id="1" parent="0" />
        <mxCell id="-8PNFl1u2a8N4YdT_IEa-5" value="Private subnet" style="points=[[0,0],[0.25,0],[0.5,0],[0.75,0],[1,0],[1,0.25],[1,0.5],[1,0.75],[1,1],[0.75,1],[0.5,1],[0.25,1],[0,1],[0,0.75],[0,0.5],[0,0.25]];outlineConnect=0;gradientColor=none;html=1;whiteSpace=wrap;fontSize=12;fontStyle=0;container=0;pointerEvents=0;collapsible=0;recursiveResize=0;shape=mxgraph.aws4.group;grIcon=mxgraph.aws4.group_security_group;grStroke=0;strokeColor=#147EBA;fillColor=#E6F2F8;verticalAlign=top;align=left;spacingLeft=30;fontColor=#147EBA;dashed=0;" parent="1" vertex="1">
          <mxGeometry x="350" y="280" width="250" height="105" as="geometry" />
        </mxCell>
        <mxCell id="-8PNFl1u2a8N4YdT_IEa-9" value="Lambda ENI" style="sketch=0;outlineConnect=0;fontColor=#232F3E;gradientColor=none;fillColor=#4D27AA;strokeColor=none;dashed=0;verticalLabelPosition=bottom;verticalAlign=top;align=center;html=1;fontSize=12;fontStyle=0;aspect=fixed;pointerEvents=1;shape=mxgraph.aws4.elastic_network_interface;container=0;" parent="1" vertex="1">
          <mxGeometry x="440" y="322.5" width="43" height="43" as="geometry" />
        </mxCell>
        <mxCell id="-8PNFl1u2a8N4YdT_IEa-8" value="Auth Function" style="sketch=0;outlineConnect=0;fontColor=#232F3E;gradientColor=none;fillColor=#D45B07;strokeColor=none;dashed=0;verticalLabelPosition=bottom;verticalAlign=top;align=center;html=1;fontSize=12;fontStyle=0;aspect=fixed;pointerEvents=1;shape=mxgraph.aws4.lambda_function;container=0;" parent="1" vertex="1">
          <mxGeometry x="366" y="320" width="48" height="48" as="geometry" />
        </mxCell>
        <mxCell id="-8PNFl1u2a8N4YdT_IEa-15" style="edgeStyle=orthogonalEdgeStyle;rounded=0;orthogonalLoop=1;jettySize=auto;html=1;" parent="1" source="-8PNFl1u2a8N4YdT_IEa-8" target="-8PNFl1u2a8N4YdT_IEa-9" edge="1">
          <mxGeometry relative="1" as="geometry" />
        </mxCell>
        <mxCell id="-8PNFl1u2a8N4YdT_IEa-1" value="AWS" style="points=[[0,0],[0.25,0],[0.5,0],[0.75,0],[1,0],[1,0.25],[1,0.5],[1,0.75],[1,1],[0.75,1],[0.5,1],[0.25,1],[0,1],[0,0.75],[0,0.5],[0,0.25]];outlineConnect=0;gradientColor=none;html=1;whiteSpace=wrap;fontSize=12;fontStyle=0;container=0;pointerEvents=0;collapsible=0;recursiveResize=0;shape=mxgraph.aws4.group;grIcon=mxgraph.aws4.group_aws_cloud;strokeColor=#232F3E;fillColor=none;verticalAlign=top;align=left;spacingLeft=30;fontColor=#232F3E;dashed=0;" parent="1" vertex="1">
          <mxGeometry x="120" y="120" width="540" height="340" as="geometry" />
        </mxCell>
        <mxCell id="-8PNFl1u2a8N4YdT_IEa-7" value="Identity Provider&lt;br&gt;(e.g. Microsoft AD, Okta)" style="aspect=fixed;perimeter=ellipsePerimeter;html=1;align=center;shadow=0;dashed=0;fontColor=#4277BB;labelBackgroundColor=#ffffff;fontSize=12;spacingTop=3;image;image=img/lib/ibm/security/identity_provider.svg;container=0;" parent="1" vertex="1">
          <mxGeometry x="530" y="314" width="60" height="60" as="geometry" />
        </mxCell>
        <mxCell id="-8PNFl1u2a8N4YdT_IEa-18" style="edgeStyle=orthogonalEdgeStyle;rounded=0;orthogonalLoop=1;jettySize=auto;html=1;entryX=0;entryY=0.5;entryDx=0;entryDy=0;" parent="1" source="-8PNFl1u2a8N4YdT_IEa-9" target="-8PNFl1u2a8N4YdT_IEa-7" edge="1">
          <mxGeometry relative="1" as="geometry">
            <mxPoint x="720" y="344" as="targetPoint" />
          </mxGeometry>
        </mxCell>
        <mxCell id="GkHMDYBxcVw07ru3HMIV-2" style="edgeStyle=orthogonalEdgeStyle;rounded=0;orthogonalLoop=1;jettySize=auto;html=1;" parent="1" source="GkHMDYBxcVw07ru3HMIV-1" target="-8PNFl1u2a8N4YdT_IEa-10" edge="1">
          <mxGeometry relative="1" as="geometry" />
        </mxCell>
        <mxCell id="GkHMDYBxcVw07ru3HMIV-1" value="Client" style="sketch=0;outlineConnect=0;fontColor=#232F3E;gradientColor=none;strokeColor=#232F3E;fillColor=#ffffff;dashed=0;verticalLabelPosition=bottom;verticalAlign=top;align=center;html=1;fontSize=12;fontStyle=0;aspect=fixed;shape=mxgraph.aws4.resourceIcon;resIcon=mxgraph.aws4.client;container=0;" parent="1" vertex="1">
          <mxGeometry x="30" y="314" width="60" height="60" as="geometry" />
        </mxCell>
        <mxCell id="-8PNFl1u2a8N4YdT_IEa-2" value="[Region]" style="points=[[0,0],[0.25,0],[0.5,0],[0.75,0],[1,0],[1,0.25],[1,0.5],[1,0.75],[1,1],[0.75,1],[0.5,1],[0.25,1],[0,1],[0,0.75],[0,0.5],[0,0.25]];outlineConnect=0;gradientColor=none;html=1;whiteSpace=wrap;fontSize=12;fontStyle=0;container=0;pointerEvents=0;collapsible=0;recursiveResize=0;shape=mxgraph.aws4.group;grIcon=mxgraph.aws4.group_region;strokeColor=#147EBA;fillColor=none;verticalAlign=top;align=left;spacingLeft=30;fontColor=#147EBA;dashed=1;" parent="1" vertex="1">
          <mxGeometry x="130" y="170" width="520" height="270" as="geometry" />
        </mxCell>
        <mxCell id="-8PNFl1u2a8N4YdT_IEa-4" value="VPC" style="points=[[0,0],[0.25,0],[0.5,0],[0.75,0],[1,0],[1,0.25],[1,0.5],[1,0.75],[1,1],[0.75,1],[0.5,1],[0.25,1],[0,1],[0,0.75],[0,0.5],[0,0.25]];outlineConnect=0;gradientColor=none;html=1;whiteSpace=wrap;fontSize=12;fontStyle=0;container=0;pointerEvents=0;collapsible=0;recursiveResize=0;shape=mxgraph.aws4.group;grIcon=mxgraph.aws4.group_vpc;strokeColor=#248814;fillColor=none;verticalAlign=top;align=left;spacingLeft=30;fontColor=#AAB7B8;dashed=0;" parent="1" vertex="1">
          <mxGeometry x="300" y="200" width="340" height="230" as="geometry" />
        </mxCell>
        <mxCell id="-8PNFl1u2a8N4YdT_IEa-14" style="edgeStyle=orthogonalEdgeStyle;rounded=0;orthogonalLoop=1;jettySize=auto;html=1;" parent="1" source="-8PNFl1u2a8N4YdT_IEa-8" target="-8PNFl1u2a8N4YdT_IEa-12" edge="1">
          <mxGeometry relative="1" as="geometry">
            <Array as="points">
              <mxPoint x="390" y="300" />
              <mxPoint x="249" y="300" />
            </Array>
          </mxGeometry>
        </mxCell>
        <mxCell id="-8PNFl1u2a8N4YdT_IEa-13" value="" style="edgeStyle=orthogonalEdgeStyle;rounded=0;orthogonalLoop=1;jettySize=auto;html=1;" parent="1" source="-8PNFl1u2a8N4YdT_IEa-10" target="-8PNFl1u2a8N4YdT_IEa-8" edge="1">
          <mxGeometry relative="1" as="geometry" />
        </mxCell>
        <mxCell id="-8PNFl1u2a8N4YdT_IEa-10" value="AWS Transfer Family" style="sketch=0;outlineConnect=0;fontColor=#232F3E;gradientColor=none;fillColor=#067F68;strokeColor=none;dashed=0;verticalLabelPosition=bottom;verticalAlign=top;align=center;html=1;fontSize=12;fontStyle=0;aspect=fixed;shape=mxgraph.aws4.transfer_for_sftp_resource;container=0;" parent="1" vertex="1">
          <mxGeometry x="170" y="315" width="56.51" height="58" as="geometry" />
        </mxCell>
        <mxCell id="-8PNFl1u2a8N4YdT_IEa-12" value="users" style="sketch=0;points=[[0,0,0],[0.25,0,0],[0.5,0,0],[0.75,0,0],[1,0,0],[0,1,0],[0.25,1,0],[0.5,1,0],[0.75,1,0],[1,1,0],[0,0.25,0],[0,0.5,0],[0,0.75,0],[1,0.25,0],[1,0.5,0],[1,0.75,0]];outlineConnect=0;fontColor=#232F3E;gradientColor=#4D72F3;gradientDirection=north;fillColor=#3334B9;strokeColor=#ffffff;dashed=0;verticalLabelPosition=bottom;verticalAlign=top;align=center;html=1;fontSize=12;fontStyle=0;aspect=fixed;shape=mxgraph.aws4.resourceIcon;resIcon=mxgraph.aws4.dynamodb;container=0;" parent="1" vertex="1">
          <mxGeometry x="226.51" y="200" width="45" height="45" as="geometry" />
        </mxCell>
        <mxCell id="-8PNFl1u2a8N4YdT_IEa-21" value="identity-providers" style="sketch=0;points=[[0,0,0],[0.25,0,0],[0.5,0,0],[0.75,0,0],[1,0,0],[0,1,0],[0.25,1,0],[0.5,1,0],[0.75,1,0],[1,1,0],[0,0.25,0],[0,0.5,0],[0,0.75,0],[1,0.25,0],[1,0.5,0],[1,0.75,0]];outlineConnect=0;fontColor=#232F3E;gradientColor=#4D72F3;gradientDirection=north;fillColor=#3334B9;strokeColor=#ffffff;dashed=0;verticalLabelPosition=bottom;verticalAlign=top;align=center;html=1;fontSize=12;fontStyle=0;aspect=fixed;shape=mxgraph.aws4.resourceIcon;resIcon=mxgraph.aws4.dynamodb;container=0;" parent="1" vertex="1">
          <mxGeometry x="150" y="200" width="45" height="45" as="geometry" />
        </mxCell>
        <mxCell id="x-z0VkHojNiXZHVe16VJ-1" style="edgeStyle=orthogonalEdgeStyle;rounded=0;orthogonalLoop=1;jettySize=auto;html=1;" parent="1" source="-8PNFl1u2a8N4YdT_IEa-8" target="-8PNFl1u2a8N4YdT_IEa-21" edge="1">
          <mxGeometry relative="1" as="geometry">
            <Array as="points">
              <mxPoint x="314" y="300" />
              <mxPoint x="242" y="300" />
            </Array>
          </mxGeometry>
        </mxCell>
      </root>
    </mxGraphModel>
  </diagram>
  <diagram id="YjS3bW4Jf6D9eGWmV-px" name="authentication-logic">
    <mxGraphModel dx="2074" dy="1214" grid="1" gridSize="10" guides="1" tooltips="1" connect="1" arrows="1" fold="1" page="1" pageScale="1" pageWidth="850" pageHeight="1100" math="0" shadow="0">
      <root>
        <mxCell id="0" />
        <mxCell id="1" parent="0" />
        <mxCell id="7r5RgdNvtrYZTm3jLy2L-15" value="Identity Provider Module" style="rounded=0;whiteSpace=wrap;html=1;fontSize=10;dashed=1;fillColor=none;strokeColor=#666666;verticalAlign=bottom;" parent="1" vertex="1">
          <mxGeometry x="390" y="450" width="440" height="220" as="geometry" />
        </mxCell>
        <mxCell id="9biyuCi008XtBNshTGux-2" value="" style="edgeStyle=orthogonalEdgeStyle;rounded=0;orthogonalLoop=1;jettySize=auto;html=1;" parent="1" source="3P1iYl7yHVLFu1dnOvs0-1" target="9biyuCi008XtBNshTGux-1" edge="1">
          <mxGeometry relative="1" as="geometry" />
        </mxCell>
        <mxCell id="9biyuCi008XtBNshTGux-3" value="" style="edgeStyle=orthogonalEdgeStyle;rounded=0;orthogonalLoop=1;jettySize=auto;html=1;" parent="1" source="3P1iYl7yHVLFu1dnOvs0-1" target="9biyuCi008XtBNshTGux-1" edge="1">
          <mxGeometry relative="1" as="geometry" />
        </mxCell>
        <mxCell id="3P1iYl7yHVLFu1dnOvs0-1" value="Lookup username in users table" style="rounded=1;whiteSpace=wrap;html=1;absoluteArcSize=1;arcSize=14;strokeWidth=2;fontFamily=Helvetica;fontSize=12;fontColor=default;align=center;strokeColor=default;fillColor=default;" parent="1" vertex="1">
          <mxGeometry x="480" y="60" width="120" height="60" as="geometry" />
        </mxCell>
        <mxCell id="9biyuCi008XtBNshTGux-5" value="No" style="edgeStyle=orthogonalEdgeStyle;rounded=0;orthogonalLoop=1;jettySize=auto;html=1;" parent="1" source="9biyuCi008XtBNshTGux-1" target="9biyuCi008XtBNshTGux-4" edge="1">
          <mxGeometry relative="1" as="geometry" />
        </mxCell>
        <mxCell id="7r5RgdNvtrYZTm3jLy2L-12" value="Yes" style="edgeStyle=orthogonalEdgeStyle;rounded=0;orthogonalLoop=1;jettySize=auto;html=1;fontSize=10;" parent="1" source="9biyuCi008XtBNshTGux-1" target="7r5RgdNvtrYZTm3jLy2L-6" edge="1">
          <mxGeometry relative="1" as="geometry" />
        </mxCell>
        <mxCell id="9biyuCi008XtBNshTGux-1" value="User Exists?" style="strokeWidth=2;html=1;shape=mxgraph.flowchart.decision;whiteSpace=wrap;fontFamily=Helvetica;fontSize=12;fontColor=default;align=center;strokeColor=default;fillColor=default;" parent="1" vertex="1">
          <mxGeometry x="660" y="50" width="80" height="80" as="geometry" />
        </mxCell>
        <mxCell id="7r5RgdNvtrYZTm3jLy2L-13" style="edgeStyle=orthogonalEdgeStyle;rounded=0;orthogonalLoop=1;jettySize=auto;html=1;fontSize=10;" parent="1" source="9biyuCi008XtBNshTGux-4" target="7r5RgdNvtrYZTm3jLy2L-6" edge="1">
          <mxGeometry relative="1" as="geometry">
            <Array as="points">
              <mxPoint x="870" y="210" />
            </Array>
          </mxGeometry>
        </mxCell>
        <mxCell id="9biyuCi008XtBNshTGux-4" value="Use $default$ Config from Users Table" style="rounded=1;whiteSpace=wrap;html=1;absoluteArcSize=1;arcSize=14;strokeWidth=2;fontFamily=Helvetica;fontSize=12;fontColor=default;align=center;strokeColor=default;fillColor=default;" parent="1" vertex="1">
          <mxGeometry x="810" y="60" width="120" height="60" as="geometry" />
        </mxCell>
        <mxCell id="xAn_hb70YDS_HZV8ok_7-3" value="" style="edgeStyle=orthogonalEdgeStyle;rounded=0;orthogonalLoop=1;jettySize=auto;html=1;" parent="1" source="9biyuCi008XtBNshTGux-6" target="xAn_hb70YDS_HZV8ok_7-2" edge="1">
          <mxGeometry relative="1" as="geometry" />
        </mxCell>
        <mxCell id="9biyuCi008XtBNshTGux-6" value="lookup provider using &lt;i&gt;config identity_provider_key&lt;/i&gt;" style="rounded=1;whiteSpace=wrap;html=1;absoluteArcSize=1;arcSize=14;strokeWidth=2;fontFamily=Helvetica;fontSize=12;fontColor=default;align=center;strokeColor=default;fillColor=default;" parent="1" vertex="1">
          <mxGeometry x="350" y="180" width="120" height="60" as="geometry" />
        </mxCell>
        <mxCell id="xAn_hb70YDS_HZV8ok_7-10" value="No" style="edgeStyle=orthogonalEdgeStyle;rounded=0;orthogonalLoop=1;jettySize=auto;html=1;" parent="1" source="xAn_hb70YDS_HZV8ok_7-2" target="xAn_hb70YDS_HZV8ok_7-9" edge="1">
          <mxGeometry relative="1" as="geometry" />
        </mxCell>
        <mxCell id="xAn_hb70YDS_HZV8ok_7-12" value="Yes" style="edgeStyle=orthogonalEdgeStyle;rounded=0;orthogonalLoop=1;jettySize=auto;html=1;" parent="1" source="xAn_hb70YDS_HZV8ok_7-2" target="D12CYQUIo_TFi6Bv4iuY-1" edge="1">
          <mxGeometry relative="1" as="geometry">
            <mxPoint x="260" y="320" as="targetPoint" />
          </mxGeometry>
        </mxCell>
        <mxCell id="xAn_hb70YDS_HZV8ok_7-2" value="Provider Exists?" style="strokeWidth=2;html=1;shape=mxgraph.flowchart.decision;whiteSpace=wrap;fontFamily=Helvetica;fontSize=12;fontColor=default;align=center;strokeColor=default;fillColor=default;" parent="1" vertex="1">
          <mxGeometry x="220" y="170" width="80" height="80" as="geometry" />
        </mxCell>
        <mxCell id="7r5RgdNvtrYZTm3jLy2L-14" style="edgeStyle=orthogonalEdgeStyle;rounded=0;orthogonalLoop=1;jettySize=auto;html=1;fontSize=10;" parent="1" source="xAn_hb70YDS_HZV8ok_7-6" target="3P1iYl7yHVLFu1dnOvs0-1" edge="1">
          <mxGeometry relative="1" as="geometry" />
        </mxCell>
        <mxCell id="xAn_hb70YDS_HZV8ok_7-6" value="Start" style="strokeWidth=2;html=1;shape=mxgraph.flowchart.start_1;whiteSpace=wrap;" parent="1" vertex="1">
          <mxGeometry x="320" y="60" width="100" height="60" as="geometry" />
        </mxCell>
        <mxCell id="xAn_hb70YDS_HZV8ok_7-9" value="Raise Exception/Fail Auth" style="strokeWidth=2;html=1;shape=mxgraph.flowchart.terminator;whiteSpace=wrap;" parent="1" vertex="1">
          <mxGeometry x="80" y="185" width="90" height="50" as="geometry" />
        </mxCell>
        <mxCell id="xAn_hb70YDS_HZV8ok_7-14" value="" style="edgeStyle=orthogonalEdgeStyle;rounded=0;orthogonalLoop=1;jettySize=auto;html=1;fontSize=11;" parent="1" source="xAn_hb70YDS_HZV8ok_7-11" target="xAn_hb70YDS_HZV8ok_7-13" edge="1">
          <mxGeometry relative="1" as="geometry" />
        </mxCell>
        <mxCell id="xAn_hb70YDS_HZV8ok_7-11" value="&lt;font style=&quot;font-size: 11px;&quot;&gt;use &lt;i&gt;module &lt;/i&gt;attribute to load module entrypoint, pass &lt;i&gt;user &lt;/i&gt;and &lt;i&gt;identity_provider&lt;/i&gt;&amp;nbsp;records&lt;/font&gt;" style="rounded=1;whiteSpace=wrap;html=1;absoluteArcSize=1;arcSize=14;strokeWidth=2;fontFamily=Helvetica;fontSize=12;fontColor=default;align=center;strokeColor=default;fillColor=default;" parent="1" vertex="1">
          <mxGeometry x="200" y="465" width="120" height="60" as="geometry" />
        </mxCell>
        <mxCell id="xAn_hb70YDS_HZV8ok_7-16" value="" style="edgeStyle=orthogonalEdgeStyle;rounded=0;orthogonalLoop=1;jettySize=auto;html=1;fontSize=11;" parent="1" source="xAn_hb70YDS_HZV8ok_7-13" target="xAn_hb70YDS_HZV8ok_7-15" edge="1">
          <mxGeometry relative="1" as="geometry" />
        </mxCell>
        <mxCell id="xAn_hb70YDS_HZV8ok_7-13" value="&lt;font style=&quot;font-size: 11px;&quot;&gt;handle_auth&lt;br&gt;(event, parsed_username, user_record, identity_provider_record, response_data)&lt;/font&gt;" style="whiteSpace=wrap;html=1;rounded=1;arcSize=14;strokeWidth=2;" parent="1" vertex="1">
          <mxGeometry x="400" y="460" width="140" height="70" as="geometry" />
        </mxCell>
        <mxCell id="7r5RgdNvtrYZTm3jLy2L-1" value="No" style="edgeStyle=orthogonalEdgeStyle;rounded=0;orthogonalLoop=1;jettySize=auto;html=1;fontSize=10;entryX=0;entryY=0.5;entryDx=0;entryDy=0;entryPerimeter=0;" parent="1" source="xAn_hb70YDS_HZV8ok_7-15" target="7r5RgdNvtrYZTm3jLy2L-16" edge="1">
          <mxGeometry relative="1" as="geometry">
            <mxPoint x="710" y="490" as="targetPoint" />
          </mxGeometry>
        </mxCell>
        <mxCell id="7r5RgdNvtrYZTm3jLy2L-3" value="" style="edgeStyle=orthogonalEdgeStyle;rounded=0;orthogonalLoop=1;jettySize=auto;html=1;fontSize=10;" parent="1" source="xAn_hb70YDS_HZV8ok_7-15" target="7r5RgdNvtrYZTm3jLy2L-2" edge="1">
          <mxGeometry relative="1" as="geometry" />
        </mxCell>
        <mxCell id="xAn_hb70YDS_HZV8ok_7-15" value="Authentication Successful?" style="rhombus;whiteSpace=wrap;html=1;rounded=1;arcSize=14;strokeWidth=2;fontSize=10;" parent="1" vertex="1">
          <mxGeometry x="570" y="455" width="80" height="80" as="geometry" />
        </mxCell>
        <mxCell id="7r5RgdNvtrYZTm3jLy2L-5" value="" style="edgeStyle=orthogonalEdgeStyle;rounded=0;orthogonalLoop=1;jettySize=auto;html=1;fontSize=10;" parent="1" source="7r5RgdNvtrYZTm3jLy2L-2" target="7r5RgdNvtrYZTm3jLy2L-4" edge="1">
          <mxGeometry relative="1" as="geometry" />
        </mxCell>
        <mxCell id="7r5RgdNvtrYZTm3jLy2L-2" value="Build AWS Transfer response" style="whiteSpace=wrap;html=1;fontSize=10;rounded=1;arcSize=14;strokeWidth=2;" parent="1" vertex="1">
          <mxGeometry x="550" y="580" width="120" height="60" as="geometry" />
        </mxCell>
        <mxCell id="7r5RgdNvtrYZTm3jLy2L-18" style="edgeStyle=orthogonalEdgeStyle;rounded=0;orthogonalLoop=1;jettySize=auto;html=1;fontSize=10;" parent="1" source="7r5RgdNvtrYZTm3jLy2L-4" target="7r5RgdNvtrYZTm3jLy2L-17" edge="1">
          <mxGeometry relative="1" as="geometry" />
        </mxCell>
        <mxCell id="7r5RgdNvtrYZTm3jLy2L-4" value="Return&amp;nbsp; AWS Transfer response" style="whiteSpace=wrap;html=1;fontSize=10;rounded=1;arcSize=14;strokeWidth=2;" parent="1" vertex="1">
          <mxGeometry x="210" y="580" width="120" height="60" as="geometry" />
        </mxCell>
        <mxCell id="7r5RgdNvtrYZTm3jLy2L-8" value="" style="edgeStyle=orthogonalEdgeStyle;rounded=0;orthogonalLoop=1;jettySize=auto;html=1;fontSize=10;" parent="1" source="7r5RgdNvtrYZTm3jLy2L-6" target="7r5RgdNvtrYZTm3jLy2L-7" edge="1">
          <mxGeometry relative="1" as="geometry" />
        </mxCell>
        <mxCell id="7r5RgdNvtrYZTm3jLy2L-6" value="check if client IP is with &lt;i&gt;ipv4_allow_list &lt;/i&gt;attribute" style="rounded=1;whiteSpace=wrap;html=1;absoluteArcSize=1;arcSize=14;strokeWidth=2;fontFamily=Helvetica;fontSize=12;fontColor=default;align=center;strokeColor=default;fillColor=default;" parent="1" vertex="1">
          <mxGeometry x="640" y="180" width="120" height="60" as="geometry" />
        </mxCell>
        <mxCell id="7r5RgdNvtrYZTm3jLy2L-9" value="Yes" style="edgeStyle=orthogonalEdgeStyle;rounded=0;orthogonalLoop=1;jettySize=auto;html=1;fontSize=10;" parent="1" source="7r5RgdNvtrYZTm3jLy2L-7" target="9biyuCi008XtBNshTGux-6" edge="1">
          <mxGeometry relative="1" as="geometry" />
        </mxCell>
        <mxCell id="7r5RgdNvtrYZTm3jLy2L-11" value="No" style="edgeStyle=orthogonalEdgeStyle;rounded=0;orthogonalLoop=1;jettySize=auto;html=1;fontSize=10;" parent="1" source="7r5RgdNvtrYZTm3jLy2L-7" target="7r5RgdNvtrYZTm3jLy2L-10" edge="1">
          <mxGeometry relative="1" as="geometry" />
        </mxCell>
        <mxCell id="7r5RgdNvtrYZTm3jLy2L-7" value="IP allowed?" style="rhombus;whiteSpace=wrap;html=1;rounded=1;arcSize=14;strokeWidth=2;" parent="1" vertex="1">
          <mxGeometry x="520" y="170" width="80" height="80" as="geometry" />
        </mxCell>
        <mxCell id="7r5RgdNvtrYZTm3jLy2L-10" value="Raise Exception/Fail Auth" style="strokeWidth=2;html=1;shape=mxgraph.flowchart.terminator;whiteSpace=wrap;" parent="1" vertex="1">
          <mxGeometry x="515" y="280" width="90" height="50" as="geometry" />
        </mxCell>
        <mxCell id="7r5RgdNvtrYZTm3jLy2L-16" value="Raise Exception/Fail Auth" style="strokeWidth=2;html=1;shape=mxgraph.flowchart.terminator;whiteSpace=wrap;" parent="1" vertex="1">
          <mxGeometry x="720" y="470" width="90" height="50" as="geometry" />
        </mxCell>
        <mxCell id="7r5RgdNvtrYZTm3jLy2L-17" value="Finish" style="strokeWidth=2;html=1;shape=mxgraph.flowchart.terminator;whiteSpace=wrap;" parent="1" vertex="1">
          <mxGeometry x="70" y="585" width="90" height="50" as="geometry" />
        </mxCell>
        <mxCell id="D12CYQUIo_TFi6Bv4iuY-2" style="edgeStyle=orthogonalEdgeStyle;rounded=0;orthogonalLoop=1;jettySize=auto;html=1;" edge="1" parent="1" source="D12CYQUIo_TFi6Bv4iuY-1" target="xAn_hb70YDS_HZV8ok_7-11">
          <mxGeometry relative="1" as="geometry" />
        </mxCell>
        <mxCell id="D12CYQUIo_TFi6Bv4iuY-1" value="&lt;span style=&quot;font-size: 11px;&quot;&gt;begin building response_data from user_record and identity_provider_record&lt;/span&gt;" style="rounded=1;whiteSpace=wrap;html=1;absoluteArcSize=1;arcSize=14;strokeWidth=2;fontFamily=Helvetica;fontSize=12;fontColor=default;align=center;strokeColor=default;fillColor=default;" vertex="1" parent="1">
          <mxGeometry x="200" y="340" width="120" height="60" as="geometry" />
        </mxCell>
      </root>
    </mxGraphModel>
  </diagram>
  <diagram id="Mzzv8ZZeOIxW-cuWG0UY" name="ldap-module-process-flow">
    <mxGraphModel dx="2924" dy="1214" grid="1" gridSize="10" guides="1" tooltips="1" connect="1" arrows="1" fold="1" page="1" pageScale="1" pageWidth="850" pageHeight="1100" math="0" shadow="0">
      <root>
        <mxCell id="0" />
        <mxCell id="1" parent="0" />
        <mxCell id="OjrBDegtOv5cAJYjnbsx-19" style="edgeStyle=orthogonalEdgeStyle;rounded=0;orthogonalLoop=1;jettySize=auto;html=1;fontSize=11;" parent="1" source="OjrBDegtOv5cAJYjnbsx-2" target="OjrBDegtOv5cAJYjnbsx-4" edge="1">
          <mxGeometry relative="1" as="geometry" />
        </mxCell>
        <mxCell id="OjrBDegtOv5cAJYjnbsx-2" value="handle_auth(event, user_record, identity_provider_record)" style="strokeWidth=2;html=1;shape=mxgraph.flowchart.start_2;whiteSpace=wrap;strokeColor=#000000;fontSize=11;fillColor=none;" parent="1" vertex="1">
          <mxGeometry x="10" y="230" width="100" height="100" as="geometry" />
        </mxCell>
        <mxCell id="OjrBDegtOv5cAJYjnbsx-6" value="" style="edgeStyle=orthogonalEdgeStyle;rounded=0;orthogonalLoop=1;jettySize=auto;html=1;fontSize=11;" parent="1" source="OjrBDegtOv5cAJYjnbsx-4" target="OjrBDegtOv5cAJYjnbsx-5" edge="1">
          <mxGeometry relative="1" as="geometry" />
        </mxCell>
        <mxCell id="OjrBDegtOv5cAJYjnbsx-4" value="build connection string&lt;br&gt;identity_provider_record&lt;i&gt;.config.server&lt;/i&gt;&lt;br&gt;identity_provider_record&lt;i&gt;.config.port&lt;/i&gt;&lt;br&gt;identity_provider_record&lt;i&gt;.config.ssl&lt;br&gt;&lt;/i&gt;identity_provider_record&lt;i style=&quot;border-color: var(--border-color);&quot;&gt;.config.search_base&lt;br&gt;identity_provider_record.config.ssl_verify&lt;br style=&quot;border-color: var(--border-color);&quot;&gt;&lt;/i&gt;" style="rounded=1;whiteSpace=wrap;html=1;absoluteArcSize=1;arcSize=14;strokeWidth=2;strokeColor=#000000;fontSize=11;fillColor=none;" parent="1" vertex="1">
          <mxGeometry x="160" y="215" width="220" height="130" as="geometry" />
        </mxCell>
        <mxCell id="OjrBDegtOv5cAJYjnbsx-8" value="" style="edgeStyle=orthogonalEdgeStyle;rounded=0;orthogonalLoop=1;jettySize=auto;html=1;fontSize=11;" parent="1" source="OjrBDegtOv5cAJYjnbsx-5" target="OjrBDegtOv5cAJYjnbsx-7" edge="1">
          <mxGeometry relative="1" as="geometry" />
        </mxCell>
        <mxCell id="OjrBDegtOv5cAJYjnbsx-5" value="build query string&lt;br&gt;&lt;i&gt;identity_provider_config.config.attributes&lt;br&gt;&lt;/i&gt;" style="rounded=1;whiteSpace=wrap;html=1;absoluteArcSize=1;arcSize=14;strokeWidth=2;strokeColor=#000000;fontSize=11;fillColor=none;" parent="1" vertex="1">
          <mxGeometry x="420" y="210" width="220" height="140" as="geometry" />
        </mxCell>
        <mxCell id="OjrBDegtOv5cAJYjnbsx-10" value="" style="edgeStyle=orthogonalEdgeStyle;rounded=0;orthogonalLoop=1;jettySize=auto;html=1;fontSize=11;" parent="1" source="OjrBDegtOv5cAJYjnbsx-7" target="OjrBDegtOv5cAJYjnbsx-9" edge="1">
          <mxGeometry relative="1" as="geometry" />
        </mxCell>
        <mxCell id="OjrBDegtOv5cAJYjnbsx-7" value="connect and query" style="rounded=1;whiteSpace=wrap;html=1;absoluteArcSize=1;arcSize=14;strokeWidth=2;strokeColor=#000000;fontSize=11;fillColor=none;" parent="1" vertex="1">
          <mxGeometry x="670" y="210" width="170" height="140" as="geometry" />
        </mxCell>
        <mxCell id="OjrBDegtOv5cAJYjnbsx-14" value="" style="edgeStyle=orthogonalEdgeStyle;rounded=0;orthogonalLoop=1;jettySize=auto;html=1;fontSize=11;" parent="1" source="OjrBDegtOv5cAJYjnbsx-9" target="OjrBDegtOv5cAJYjnbsx-13" edge="1">
          <mxGeometry relative="1" as="geometry" />
        </mxCell>
        <mxCell id="K1IxPmORq_Psjmhu0Wez-2" value="" style="edgeStyle=orthogonalEdgeStyle;rounded=0;orthogonalLoop=1;jettySize=auto;html=1;" parent="1" source="OjrBDegtOv5cAJYjnbsx-9" target="K1IxPmORq_Psjmhu0Wez-3" edge="1">
          <mxGeometry relative="1" as="geometry">
            <mxPoint x="755" y="560" as="targetPoint" />
          </mxGeometry>
        </mxCell>
        <mxCell id="OjrBDegtOv5cAJYjnbsx-9" value="Successful?" style="rhombus;whiteSpace=wrap;html=1;fontSize=11;fillColor=none;strokeColor=#000000;rounded=1;arcSize=14;strokeWidth=2;" parent="1" vertex="1">
          <mxGeometry x="715" y="390" width="80" height="80" as="geometry" />
        </mxCell>
        <mxCell id="OjrBDegtOv5cAJYjnbsx-16" value="" style="edgeStyle=orthogonalEdgeStyle;rounded=0;orthogonalLoop=1;jettySize=auto;html=1;fontSize=11;" parent="1" source="OjrBDegtOv5cAJYjnbsx-13" target="OjrBDegtOv5cAJYjnbsx-15" edge="1">
          <mxGeometry relative="1" as="geometry" />
        </mxCell>
        <mxCell id="OjrBDegtOv5cAJYjnbsx-13" value="Merge LDAP properties&lt;br&gt;and user_config" style="whiteSpace=wrap;html=1;fontSize=11;fillColor=none;strokeColor=#000000;rounded=1;arcSize=14;strokeWidth=2;" parent="1" vertex="1">
          <mxGeometry x="535" y="400" width="120" height="60" as="geometry" />
        </mxCell>
        <mxCell id="OjrBDegtOv5cAJYjnbsx-18" style="edgeStyle=orthogonalEdgeStyle;rounded=0;orthogonalLoop=1;jettySize=auto;html=1;fontSize=11;" parent="1" source="OjrBDegtOv5cAJYjnbsx-15" target="OjrBDegtOv5cAJYjnbsx-17" edge="1">
          <mxGeometry relative="1" as="geometry" />
        </mxCell>
        <mxCell id="OjrBDegtOv5cAJYjnbsx-15" value="Build AWS Transfer&lt;br&gt;response" style="whiteSpace=wrap;html=1;fontSize=11;fillColor=none;strokeColor=#000000;rounded=1;arcSize=14;strokeWidth=2;" parent="1" vertex="1">
          <mxGeometry x="335" y="400" width="120" height="60" as="geometry" />
        </mxCell>
        <mxCell id="OjrBDegtOv5cAJYjnbsx-17" value="return (response)" style="strokeWidth=2;html=1;shape=mxgraph.flowchart.terminator;whiteSpace=wrap;strokeColor=#000000;fontSize=11;fillColor=none;" parent="1" vertex="1">
          <mxGeometry x="130" y="400" width="100" height="60" as="geometry" />
        </mxCell>
        <mxCell id="K1IxPmORq_Psjmhu0Wez-3" value="return {}" style="strokeWidth=2;html=1;shape=mxgraph.flowchart.terminator;whiteSpace=wrap;strokeColor=#000000;fontSize=11;fillColor=none;" parent="1" vertex="1">
          <mxGeometry x="705" y="510" width="100" height="60" as="geometry" />
        </mxCell>
      </root>
    </mxGraphModel>
  </diagram>
</mxfile>
